<?xml version="1.0" standalone="no"?>
<!DOCTYPE svg PUBLIC "-//W3C//DTD SVG 20010904//EN"
 "http://www.w3.org/TR/2001/REC-SVG-20010904/DTD/svg10.dtd">
<svg version="1.0" xmlns="http://www.w3.org/2000/svg"
 width="800.000000pt" height="800.000000pt" viewBox="0 0 800.000000 800.000000"
 preserveAspectRatio="xMidYMid meet">

<g transform="translate(0.000000,800.000000) scale(0.100000,-0.100000)"
fill="#000000" stroke="none">
<path d="M0 4000 l0 -4000 4000 0 4000 0 0 4000 0 4000 -4000 0 -4000 0 0
-4000z m1979 2589 c132 -21 242 -75 336 -165 105 -100 167 -229 185 -386 31
-268 103 -467 217 -597 26 -30 256 -247 510 -483 l463 -429 68 55 c466 374
1121 468 1688 240 529 -212 907 -668 1036 -1249 19 -87 22 -130 22 -325 1
-197 -2 -238 -22 -327 -150 -685 -670 -1205 -1355 -1355 -89 -20 -130 -23
-327 -22 -195 0 -238 3 -325 22 -457 101 -831 351 -1080 722 -379 564 -385
1320 -15 1877 l59 88 -37 36 c-127 125 -863 797 -915 836 -137 102 -338 178
-567 214 -241 38 -308 62 -419 145 -226 170 -300 505 -170 769 117 239 385
377 648 334z"/>
<path d="M3594 4428 c-50 -51 -103 -110 -118 -130 l-28 -38 108 -113 c122
-128 189 -229 240 -365 55 -148 66 -221 68 -472 1 -183 5 -238 20 -295 92
-346 357 -613 694 -697 124 -32 341 -31 462 1 116 30 269 107 363 182 152 122
278 316 328 509 32 122 33 338 1 463 -82 326 -331 584 -667 689 -66 21 -90 22
-410 23 -316 1 -346 3 -423 23 -180 47 -321 122 -454 238 -46 40 -86 73 -89
74 -3 0 -46 -42 -95 -92z"/>
</g>
</svg>
