<?xml version="1.0" standalone="no"?>
<!DOCTYPE svg PUBLIC "-//W3C//DTD SVG 20010904//EN"
 "http://www.w3.org/TR/2001/REC-SVG-20010904/DTD/svg10.dtd">
<svg version="1.0" xmlns="http://www.w3.org/2000/svg"
 width="800.000000pt" height="800.000000pt" viewBox="0 0 800.000000 800.000000"
 preserveAspectRatio="xMidYMid meet">

<g transform="translate(0.000000,800.000000) scale(0.100000,-0.100000)"
fill="#000000" stroke="none">
<path d="M1751 6585 c-211 -46 -389 -209 -458 -419 -37 -116 -37 -266 0 -382
46 -139 135 -254 257 -334 81 -52 163 -78 318 -100 274 -40 472 -113 631 -232
44 -33 802 -728 908 -832 l32 -31 -59 -88 c-370 -557 -364 -1313 15 -1877 249
-371 623 -621 1080 -722 87 -19 130 -22 325 -22 197 -1 238 2 327 22 685 150
1205 670 1355 1355 20 89 23 130 22 327 0 195 -3 238 -22 325 -175 790 -809
1333 -1602 1372 -398 19 -814 -116 -1122 -363 l-68 -54 -402 371 c-596 550
-601 555 -675 704 -57 113 -83 210 -108 403 -10 83 -25 149 -45 200 -108 278
-414 441 -709 377z m2027 -2139 c133 -116 274 -191 454 -238 77 -20 107 -22
423 -23 320 -1 344 -2 410 -23 336 -105 585 -363 667 -689 32 -125 31 -341 -1
-463 -50 -193 -176 -387 -328 -509 -94 -75 -247 -152 -363 -182 -121 -32 -338
-33 -462 -1 -337 84 -602 351 -694 697 -15 57 -19 112 -20 295 -2 251 -13 324
-68 472 -51 136 -118 237 -240 365 l-108 113 28 38 c32 42 205 222 213 222 3
-1 43 -34 89 -74z"/>
</g>
</svg>
